<svg width="32" height="32" viewBox="0 0 32 32" fill="none" xmlns="http://www.w3.org/2000/svg">
    <path d="M2.66675 16.9433V15.0565C2.66675 11.1961 2.66675 9.26586 3.87407 8.0239C5.0814 6.78194 6.98216 6.72818 10.7837 6.62066C12.5851 6.56971 14.4251 6.5332 16.0001 6.5332C17.575 6.5332 19.4151 6.56971 21.2165 6.62066C25.0179 6.72818 26.9187 6.78194 28.1261 8.0239C29.3334 9.26586 29.3334 11.1961 29.3334 15.0565V16.9433C29.3334 20.8037 29.3334 22.734 28.1261 23.9759C26.9187 25.2179 25.0181 25.2716 21.2166 25.3792C19.4151 25.4301 17.575 25.4667 16.0001 25.4667C14.4251 25.4667 12.585 25.4301 10.7835 25.3792C6.98209 25.2716 5.08137 25.2179 3.87405 23.9759C2.66675 22.734 2.66675 20.8037 2.66675 16.9433Z"
          fill="#B89C6C" stroke="#B89C6C" stroke-width="1.33333"/>
    <path d="M18.6667 16.0002L14 18.6668V13.3335L18.6667 16.0002Z" fill="white" stroke="white" stroke-width="1.33333"
          stroke-linecap="round" stroke-linejoin="round"/>
</svg>
