<svg xmlns="http://www.w3.org/2000/svg" xmlns:xlink="http://www.w3.org/1999/xlink" version="1.1" x="0px" y="0px" viewBox="-3 -3 262 262" enable-background="new 0 0 256 256" xml:space="preserve"><g id="deeditor_bgCarrier" stroke-width="0">
    <rect id="dee_c_e" x="-3" y="-3" width="262" height="262" rx="0" fill="#ffffff" strokewidth="0"/>
  </g>
<metadata fill="#000000"> Svg Vector Icons : http://www.onlinewebfonts.com/icon </metadata>
<g><g><path fill="#000000" d="M213.4,68.4c-9.1-19.6-15.2-32.5-7.3-49.7c1.4-3.1,0.1-6.8-3-8.2c-3.1-1.4-6.8-0.1-8.2,3c-10.3,22.3-2.1,39.8,7.3,60.1c14.1,30.2,33.4,71.5,10.1,159.3c-0.9,3.3,1.1,6.7,4.4,7.6c0.5,0.1,1.1,0.2,1.6,0.2c2.7,0,5.2-1.8,6-4.6C248.7,144,228.4,100.4,213.4,68.4z"/><path fill="#000000" d="M52.3,17.6c-2.8,2-3.4,5.9-1.5,8.6c14.8,20.9,9.1,29.8-2.4,47.4C31.6,99.4,6.2,138.5,30.1,241.2c0.7,2.8,3.2,4.8,6,4.8c0.5,0,0.9,0,1.4-0.2c3.3-0.8,5.4-4.1,4.6-7.4c-22.7-97.6,1-134,16.6-158.1C71,61.6,80.6,46.8,60.9,19C59,16.2,55.1,15.6,52.3,17.6z"/><path fill="#000000" d="M175.1,110.1c-3.3-1-6.7,0.7-7.8,4c-5.3,16.3-18.3,41.4-31.8,62c-8.9-20-18.4-36.1-33.3-59.2c-1.8-2.9-5.7-3.7-8.5-1.9c-2.9,1.9-3.7,5.7-1.9,8.5c16.3,25.4,25.9,42,35.5,64.9c1.5,18.7,1.5,31.6,1.5,46.5v3c0,3.4,2.8,6.2,6.2,6.2c3.4,0,6.2-2.8,6.2-6.2v-3c0-14,0-26.5-1.3-43.4c16.1-22.5,32.8-53.9,39.1-73.6C180.1,114.6,178.4,111.1,175.1,110.1z"/></g></g>
</svg>