<svg width="1002" height="868" viewBox="0 0 1002 868" fill="none" xmlns="http://www.w3.org/2000/svg">
<path d="M0 120.648C15.8766 120.651 31.4735 116.471 45.2189 108.53L45.2704 108.5L0 82.3555V120.648Z" fill="white" fill-opacity="0.05"/>
<path d="M53.947 21.1324V0H29.1014C36.0337 8.49088 44.4524 15.6514 53.947 21.1324V21.1324Z" fill="white" fill-opacity="0.05"/>
<path d="M0 62.3097L17.4108 72.3645C31.1563 80.3033 46.7514 84.483 62.6267 84.483C78.5019 84.483 94.097 80.3033 107.843 72.3645L107.895 72.3344L45.2149 36.1362C31.4707 28.1951 15.8752 24.0151 0 24.0176L0 62.3097Z" fill="white" fill-opacity="0.05"/>
<path d="M116.572 57.2986C116.572 55.7222 116.572 28.5638 116.572 0H73.804C76.6698 11.9517 81.9395 23.1952 89.2921 33.046C96.6447 42.8967 105.926 51.1484 116.572 57.2986V57.2986Z" fill="white" fill-opacity="0.05"/>
<path d="M321.802 21.055C321.802 54.479 321.802 91.871 321.802 93.4641L321.856 93.4334C335.607 85.4896 347.024 74.069 354.96 60.3188C362.897 46.5686 367.074 30.973 367.071 15.0985V0H324.289C322.637 6.89661 321.803 13.9635 321.802 21.055V21.055Z" fill="white" fill-opacity="0.05"/>
<path d="M259.179 129.63L259.231 129.6C272.981 121.656 284.399 110.235 292.336 96.4849C300.273 82.7346 304.45 67.1388 304.448 51.264C304.448 33.2517 304.448 14.089 304.448 0H279.582C266.384 16.1562 259.176 36.3744 259.178 57.2325C259.179 90.8875 259.179 128.571 259.179 129.63Z" fill="white" fill-opacity="0.05"/>
<path d="M196.608 51.2314L133.929 15.0332V15.0933C133.927 30.9685 138.104 46.5647 146.041 60.3155C153.978 74.0663 165.395 85.4876 179.146 93.4322L241.824 129.63V129.57C241.826 113.695 237.649 98.0987 229.712 84.348C221.775 70.5973 210.358 59.1761 196.608 51.2314V51.2314Z" fill="white" fill-opacity="0.05"/>
<path d="M179.144 21.0991L241.823 57.2973V57.2359C241.825 36.3767 234.616 16.1575 221.418 0L154.335 0C161.257 8.47725 169.663 15.6264 179.144 21.0991V21.0991Z" fill="white" fill-opacity="0.05"/>
<path d="M384.429 57.2959L447.11 21.0991C456.59 15.6266 464.996 8.47743 471.918 0L404.832 0C391.634 16.1576 384.426 36.3769 384.429 57.2359V57.2959Z" fill="white" fill-opacity="0.05"/>
<path d="M393.159 72.3008L393.107 72.3309L455.785 108.528C469.531 116.467 485.126 120.647 501.002 120.647C516.878 120.647 532.473 116.467 546.219 108.528L546.27 108.498L483.591 72.3002C469.846 64.3613 454.25 60.1815 438.375 60.1816C422.5 60.1818 406.904 64.3617 393.159 72.3008Z" fill="white" fill-opacity="0.05"/>
<path d="M554.947 21.1324V0H530.101C537.034 8.49088 545.452 15.6514 554.947 21.1324V21.1324Z" fill="white" fill-opacity="0.05"/>
<path d="M455.784 36.1362L455.731 36.1662L518.411 72.3644C532.156 80.3033 547.751 84.4831 563.627 84.4831C579.502 84.4831 595.097 80.3033 608.843 72.3644L608.895 72.3344L546.215 36.1362C532.47 28.1973 516.875 24.0176 501 24.0176C485.125 24.0176 469.53 28.1973 455.784 36.1362V36.1362Z" fill="white" fill-opacity="0.05"/>
<path d="M617.572 57.2986C617.572 55.7222 617.572 28.5638 617.572 0H574.804C577.67 11.9517 582.939 23.1952 590.292 33.046C597.645 42.8967 606.926 51.1484 617.572 57.2986V57.2986Z" fill="white" fill-opacity="0.05"/>
<path d="M822.802 21.055C822.802 54.479 822.802 91.871 822.802 93.4641L822.856 93.4334C836.607 85.4895 848.023 74.0689 855.96 60.3187C863.896 46.5685 868.073 30.9729 868.071 15.0985V0H825.289C823.637 6.89664 822.802 13.9635 822.802 21.055V21.055Z" fill="white" fill-opacity="0.05"/>
<path d="M760.179 129.63L760.231 129.6C773.981 121.656 785.398 110.235 793.335 96.4849C801.272 82.7346 805.45 67.1388 805.448 51.264C805.448 33.2517 805.448 14.089 805.448 0H780.583C767.384 16.1562 760.176 36.3744 760.178 57.2325C760.178 90.8875 760.179 128.571 760.179 129.63Z" fill="white" fill-opacity="0.05"/>
<path d="M697.608 51.2314L634.928 15.0332V15.0933C634.927 30.9685 639.104 46.5647 647.041 60.3155C654.978 74.0663 666.395 85.4876 680.145 93.4322L742.824 129.63V129.57C742.826 113.695 738.648 98.0987 730.712 84.348C722.775 70.5973 711.358 59.1761 697.608 51.2314V51.2314Z" fill="white" fill-opacity="0.05"/>
<path d="M680.144 21.0991L742.823 57.2973V57.2359C742.825 36.3767 735.616 16.1575 722.418 0L655.335 0C662.257 8.47725 670.663 15.6264 680.144 21.0991V21.0991Z" fill="white" fill-opacity="0.05"/>
<path d="M885.429 57.2959L948.11 21.0991C957.59 15.6266 965.996 8.47742 972.918 0L905.832 0C892.634 16.1576 885.427 36.3769 885.429 57.2359V57.2959Z" fill="white" fill-opacity="0.05"/>
<path d="M894.158 72.3005L894.107 72.3305L956.785 108.527C970.529 116.469 986.125 120.649 1002 120.647V82.3539L984.591 72.3005C970.845 64.3615 955.25 60.1816 939.375 60.1816C923.499 60.1816 907.904 64.3615 894.158 72.3005V72.3005Z" fill="white" fill-opacity="0.05"/>
<path d="M956.784 36.1362L956.731 36.1662L1002 62.3097V24.0176C986.124 24.0151 970.528 28.195 956.784 36.1362V36.1362Z" fill="white" fill-opacity="0.05"/>
<path d="M196.552 238.057C196.552 271.481 196.552 308.872 196.552 310.465L196.606 310.434C210.357 302.491 221.773 291.07 229.71 277.32C237.646 263.57 241.823 247.975 241.821 232.1C241.821 198.301 241.821 160.528 241.821 159.705L241.754 159.742C228.008 167.684 216.594 179.102 208.66 192.849C200.725 206.595 196.55 222.187 196.552 238.057V238.057Z" fill="white" fill-opacity="0.05"/>
<path d="M133.928 274.231C133.928 307.882 133.928 345.57 133.928 346.628L133.979 346.598C147.73 338.654 159.147 327.234 167.084 313.483C175.021 299.733 179.198 284.137 179.196 268.262C179.196 234.681 179.196 197.086 179.196 195.867L179.142 195.899C165.392 203.842 153.975 215.262 146.039 229.012C138.103 242.762 133.926 258.357 133.928 274.231V274.231Z" fill="white" fill-opacity="0.05"/>
<path d="M116.574 346.568C116.576 330.693 112.399 315.097 104.462 301.346C96.5251 287.595 85.1082 276.174 71.3578 268.229L8.67871 232.031V232.091C8.67681 247.967 12.8541 263.563 20.791 277.314C28.7279 291.064 40.145 302.486 53.8956 310.43L116.574 346.628V346.568Z" fill="white" fill-opacity="0.05"/>
<path d="M142.605 144.668L79.9803 180.834C93.7418 188.782 109.355 192.967 125.249 192.967C141.143 192.967 156.756 188.782 170.518 180.834L233.143 144.669C219.381 136.72 203.768 132.535 187.874 132.535C171.98 132.535 156.366 136.72 142.605 144.668V144.668Z" fill="white" fill-opacity="0.05"/>
<path d="M8.67737 159.701V159.761C8.67563 175.636 12.8529 191.232 20.7897 204.983C28.7265 218.733 40.1433 230.154 53.8936 238.099L116.573 274.297V274.236C116.575 258.361 112.397 242.766 104.46 229.016C96.5236 215.266 85.107 203.845 71.3571 195.901L8.67737 159.701Z" fill="white" fill-opacity="0.05"/>
<path d="M79.9797 108.5L17.3553 144.666C31.1169 152.615 46.7304 156.8 62.6244 156.8C78.5183 156.8 94.1318 152.615 107.893 144.666L170.518 108.502C156.756 100.553 141.143 96.3675 125.249 96.3672C109.355 96.3668 93.7414 100.551 79.9797 108.5V108.5Z" fill="white" fill-opacity="0.05"/>
<path d="M259.178 201.902V201.964C260.558 201.168 292.931 182.472 321.869 165.761C335.616 157.819 347.029 146.401 354.964 132.654C362.898 118.907 367.073 103.316 367.071 87.4452V87.3711L304.392 123.567C290.642 131.511 279.225 142.932 271.289 156.682C263.352 170.432 259.176 186.028 259.178 201.902V201.902Z" fill="white" fill-opacity="0.05"/>
<path d="M259.179 274.235V274.295L321.86 238.098C335.609 230.154 347.026 218.733 354.962 204.983C362.898 191.233 367.074 175.638 367.071 159.764V159.697L304.393 195.9C290.643 203.844 279.226 215.264 271.29 229.015C263.354 242.765 259.177 258.361 259.179 274.235Z" fill="white" fill-opacity="0.05"/>
<path d="M267.909 289.299L267.857 289.329L330.535 325.526C344.281 333.465 359.876 337.645 375.752 337.645C391.628 337.645 407.223 333.465 420.969 325.526L421.02 325.496L358.341 289.298C344.596 281.359 329 277.18 313.125 277.18C297.25 277.18 281.654 281.36 267.909 289.299V289.299Z" fill="white" fill-opacity="0.05"/>
<path d="M384.426 87.3711C384.426 89.2306 384.426 126.426 384.426 159.703C384.424 175.597 388.606 191.211 396.553 204.978C404.499 218.745 415.93 230.179 429.696 238.133C429.696 236.279 429.696 199.08 429.696 165.8C429.698 149.907 425.516 134.292 417.57 120.526C409.623 106.759 398.193 95.3246 384.426 87.3711Z" fill="white" fill-opacity="0.05"/>
<path d="M330.534 253.134L330.481 253.164L393.161 289.362C406.906 297.301 422.501 301.481 438.377 301.481C454.252 301.481 469.847 297.301 483.593 289.362L483.645 289.332L420.965 253.134C407.22 245.195 391.625 241.016 375.75 241.016C359.875 241.016 344.28 245.195 330.534 253.134V253.134Z" fill="white" fill-opacity="0.05"/>
<path d="M492.322 274.299C492.322 272.445 492.322 235.246 492.322 201.966C492.324 186.073 488.142 170.458 480.195 156.692C472.249 142.925 460.818 131.491 447.052 123.537C447.052 126.928 447.052 163.261 447.052 195.869C447.05 211.763 451.232 227.377 459.178 241.144C467.124 254.91 478.555 266.345 492.322 274.299Z" fill="white" fill-opacity="0.05"/>
<path d="M697.552 238.057C697.552 271.481 697.552 308.872 697.552 310.465L697.606 310.434C711.356 302.491 722.773 291.07 730.709 277.32C738.646 263.57 742.823 247.975 742.82 232.1C742.82 198.301 742.82 160.528 742.82 159.705L742.754 159.742C729.007 167.684 717.594 179.102 709.659 192.849C701.725 206.595 697.549 222.187 697.552 238.057V238.057Z" fill="white" fill-opacity="0.05"/>
<path d="M634.928 274.231C634.928 307.882 634.928 345.57 634.928 346.628L634.979 346.598C648.73 338.654 660.147 327.233 668.084 313.483C676.021 299.733 680.198 284.137 680.196 268.262C680.196 234.681 680.196 197.086 680.196 195.867L680.142 195.899C666.392 203.842 654.975 215.262 647.039 229.012C639.103 242.762 634.926 258.357 634.928 274.231V274.231Z" fill="white" fill-opacity="0.05"/>
<path d="M617.574 346.568C617.576 330.693 613.398 315.097 605.462 301.346C597.525 287.595 586.108 276.174 572.358 268.229L509.678 232.031V232.091C509.677 247.967 513.854 263.563 521.791 277.314C529.728 291.064 541.145 302.486 554.895 310.43L617.574 346.628V346.568Z" fill="white" fill-opacity="0.05"/>
<path d="M643.605 144.668L580.98 180.834C594.742 188.782 610.355 192.967 626.249 192.967C642.143 192.967 657.756 188.782 671.518 180.834L734.143 144.669C720.381 136.72 704.768 132.535 688.874 132.535C672.98 132.535 657.366 136.72 643.605 144.668V144.668Z" fill="white" fill-opacity="0.05"/>
<path d="M509.677 159.701V159.761C509.676 175.636 513.853 191.232 521.79 204.983C529.726 218.733 541.143 230.154 554.894 238.099L617.573 274.297V274.236C617.575 258.361 613.397 242.766 605.46 229.016C597.524 215.266 586.107 203.845 572.357 195.901L509.677 159.701Z" fill="white" fill-opacity="0.05"/>
<path d="M580.98 108.5L518.355 144.666C532.117 152.614 547.73 156.799 563.624 156.799C579.518 156.799 595.132 152.614 608.893 144.666L671.518 108.501C657.756 100.552 642.143 96.3673 626.249 96.3672C610.355 96.3671 594.741 100.552 580.98 108.5V108.5Z" fill="white" fill-opacity="0.05"/>
<path d="M760.178 201.902V201.964C761.557 201.168 793.931 182.472 822.869 165.761C836.616 157.819 848.029 146.401 855.964 132.654C863.898 118.907 868.073 103.316 868.071 87.4452V87.3711L805.392 123.567C791.642 131.511 780.225 142.932 772.289 156.682C764.352 170.432 760.176 186.028 760.178 201.902V201.902Z" fill="white" fill-opacity="0.05"/>
<path d="M760.179 274.235V274.295L822.86 238.097C836.609 230.153 848.025 218.733 855.962 204.983C863.898 191.233 868.074 175.638 868.071 159.764V159.697L805.393 195.894C791.642 203.839 780.225 215.26 772.288 229.012C764.352 242.763 760.176 258.36 760.179 274.235V274.235Z" fill="white" fill-opacity="0.05"/>
<path d="M768.909 289.299L768.857 289.329L831.535 325.526C845.281 333.465 860.876 337.645 876.752 337.645C892.628 337.645 908.223 333.465 921.969 325.526L922.02 325.496L859.341 289.298C845.596 281.359 830 277.18 814.125 277.18C798.25 277.18 782.654 281.36 768.909 289.299V289.299Z" fill="white" fill-opacity="0.05"/>
<path d="M885.426 87.3711C885.426 89.2306 885.426 126.426 885.426 159.703C885.424 175.597 889.606 191.211 897.553 204.978C905.499 218.745 916.93 230.179 930.696 238.133C930.696 236.279 930.696 199.08 930.696 165.8C930.698 149.907 926.516 134.292 918.57 120.526C910.623 106.759 899.193 95.3246 885.426 87.3711V87.3711Z" fill="white" fill-opacity="0.05"/>
<path d="M831.534 253.134L831.481 253.164L894.161 289.362C907.906 297.301 923.501 301.481 939.377 301.481C955.252 301.481 970.847 297.301 984.593 289.362L984.645 289.332L921.965 253.134C908.22 245.195 892.625 241.016 876.75 241.016C860.875 241.016 845.28 245.195 831.534 253.134V253.134Z" fill="white" fill-opacity="0.05"/>
<path d="M993.322 274.299C993.322 272.445 993.322 235.246 993.322 201.966C993.324 186.073 989.142 170.458 981.196 156.692C973.249 142.925 961.819 131.491 948.052 123.537C948.052 126.928 948.052 163.261 948.052 195.869C948.05 211.763 952.232 227.377 960.178 241.144C968.125 254.91 979.555 266.345 993.322 274.299V274.299Z" fill="white" fill-opacity="0.05"/>
<path d="M71.3024 455.054C71.3024 488.478 71.3024 525.87 71.3024 527.463L71.3565 527.433C85.1066 519.489 96.5233 508.068 104.46 494.318C112.396 480.568 116.573 464.972 116.571 449.098C116.571 415.298 116.571 377.526 116.571 376.703L116.504 376.74C102.758 384.682 91.3442 396.1 83.41 409.846C75.4757 423.593 71.3001 439.184 71.3024 455.054Z" fill="white" fill-opacity="0.05"/>
<path d="M8.73075 563.599C22.4813 555.656 33.8985 544.235 41.8354 530.485C49.7724 516.735 53.9497 501.139 53.9477 485.264C53.9477 451.683 53.9477 414.088 53.9477 412.869L53.8929 412.901C40.1429 420.844 28.7262 432.264 20.7896 446.014C12.8529 459.764 8.6759 475.359 8.67798 491.233C8.67798 524.888 8.67798 562.572 8.67798 563.63L8.73075 563.599Z" fill="white" fill-opacity="0.05"/>
<path d="M107.893 361.668C94.1311 353.72 78.5176 349.535 62.6237 349.535C46.7298 349.535 31.1163 353.72 17.3546 361.668L0 371.689V409.966C15.8937 409.969 31.5074 405.784 45.2677 397.834L107.893 361.668Z" fill="white" fill-opacity="0.05"/>
<path d="M0 351.647L45.2677 325.505C31.5076 317.554 15.8939 313.369 0 313.371V351.647Z" fill="white" fill-opacity="0.05"/>
<path d="M133.928 418.901V418.963L196.619 382.759C210.366 374.817 221.779 363.4 229.714 349.653C237.648 335.906 241.823 320.314 241.821 304.444V304.369L179.142 340.566C165.392 348.51 153.975 359.931 146.039 373.681C138.102 387.431 133.925 403.027 133.928 418.901V418.901Z" fill="white" fill-opacity="0.05"/>
<path d="M241.821 376.764V376.697L179.143 412.9C165.393 420.844 153.976 432.265 146.04 446.015C138.103 459.766 133.927 475.362 133.929 491.236V491.297L196.61 455.098C210.36 447.154 221.776 435.733 229.712 421.983C237.648 408.233 241.824 392.638 241.821 376.764V376.764Z" fill="white" fill-opacity="0.05"/>
<path d="M295.719 542.528L295.77 542.498L233.091 506.3C219.346 498.361 203.75 494.182 187.875 494.182C172 494.182 156.405 498.361 142.659 506.3L142.607 506.33L205.285 542.527C219.031 550.466 234.626 554.646 250.502 554.646C266.378 554.647 281.973 550.467 295.719 542.528V542.528Z" fill="white" fill-opacity="0.05"/>
<path d="M259.176 304.369C259.176 306.229 259.176 343.424 259.176 376.702C259.174 392.595 263.356 408.209 271.303 421.976C279.249 435.743 290.68 447.177 304.446 455.131C304.446 453.277 304.446 416.078 304.446 382.798C304.448 366.905 300.266 351.29 292.32 337.524C284.373 323.757 272.943 312.323 259.176 304.369V304.369Z" fill="white" fill-opacity="0.05"/>
<path d="M205.284 470.134L205.231 470.164L267.911 506.363C281.656 514.302 297.251 518.481 313.127 518.481C329.002 518.481 344.597 514.302 358.343 506.363L358.395 506.333L295.715 470.134C281.97 462.196 266.375 458.016 250.5 458.016C234.625 458.016 219.03 462.195 205.284 470.134V470.134Z" fill="white" fill-opacity="0.05"/>
<path d="M367.072 491.3C367.072 489.447 367.072 452.248 367.072 418.967C367.074 403.074 362.892 387.46 354.945 373.693C346.999 359.927 335.568 348.492 321.802 340.539C321.802 343.929 321.802 380.263 321.802 412.871C321.8 428.764 325.982 444.379 333.928 458.145C341.875 471.912 353.305 483.346 367.072 491.3V491.3Z" fill="white" fill-opacity="0.05"/>
<path d="M617.571 449.098C617.571 415.298 617.571 377.526 617.571 376.703L617.504 376.74C603.758 384.682 592.344 396.099 584.409 409.846C576.475 423.592 572.299 439.184 572.301 455.054C572.301 488.478 572.301 525.87 572.301 527.463L572.355 527.433C586.105 519.489 597.523 508.068 605.459 494.318C613.396 480.568 617.573 464.972 617.571 449.098V449.098Z" fill="white" fill-opacity="0.05"/>
<path d="M509.731 563.598C523.481 555.654 534.898 544.233 542.835 530.483C550.772 516.733 554.95 501.137 554.948 485.262C554.948 451.681 554.948 414.086 554.948 412.867L554.893 412.899C541.143 420.842 529.727 432.262 521.79 446.012C513.854 459.762 509.677 475.357 509.679 491.231C509.679 524.886 509.679 562.57 509.679 563.628L509.731 563.598Z" fill="white" fill-opacity="0.05"/>
<path d="M492.324 563.628V563.568C492.326 547.693 488.148 532.097 480.212 518.346C472.275 504.595 460.858 493.174 447.108 485.23L384.428 449.031V449.091C384.427 464.967 388.604 480.563 396.541 494.314C404.478 508.064 415.895 519.486 429.645 527.43L492.324 563.628Z" fill="white" fill-opacity="0.05"/>
<path d="M546.268 397.834L608.893 361.668C595.131 353.72 579.518 349.535 563.624 349.535C547.73 349.535 532.116 353.72 518.355 361.668L455.73 397.834C469.492 405.782 485.105 409.967 500.999 409.967C516.893 409.967 532.506 405.782 546.268 397.834V397.834Z" fill="white" fill-opacity="0.05"/>
<path d="M384.427 376.761C384.425 392.636 388.603 408.232 396.539 421.982C404.476 435.733 415.893 447.154 429.644 455.099L492.323 491.297V491.236C492.325 475.361 488.147 459.766 480.21 446.016C472.274 432.266 460.857 420.845 447.107 412.901L384.427 376.701V376.761Z" fill="white" fill-opacity="0.05"/>
<path d="M393.105 361.665C406.867 369.614 422.48 373.799 438.374 373.799C454.268 373.799 469.882 369.614 483.643 361.665L546.268 325.501C532.506 317.552 516.893 313.367 500.999 313.367C485.105 313.367 469.491 317.552 455.73 325.501L393.105 361.665Z" fill="white" fill-opacity="0.05"/>
<path d="M634.928 418.901V418.963L697.619 382.759C711.366 374.817 722.779 363.4 730.714 349.653C738.648 335.906 742.823 320.314 742.821 304.444V304.369L680.142 340.566C666.392 348.51 654.975 359.931 647.039 373.681C639.102 387.431 634.925 403.027 634.928 418.901V418.901Z" fill="white" fill-opacity="0.05"/>
<path d="M742.821 376.764V376.697L680.143 412.894C666.392 420.838 654.976 432.259 647.039 446.01C639.103 459.76 634.926 475.356 634.929 491.231V491.291L697.61 455.094C711.359 447.15 722.775 435.73 730.711 421.981C738.647 408.232 742.823 392.637 742.821 376.764Z" fill="white" fill-opacity="0.05"/>
<path d="M796.719 542.528L796.77 542.498L734.091 506.3C720.346 498.361 704.75 494.182 688.875 494.182C673 494.182 657.405 498.361 643.659 506.3L643.607 506.33L706.285 542.527C720.031 550.466 735.626 554.646 751.502 554.646C767.378 554.647 782.973 550.467 796.719 542.528V542.528Z" fill="white" fill-opacity="0.05"/>
<path d="M760.176 304.369C760.176 306.229 760.176 343.424 760.176 376.702C760.174 392.595 764.356 408.209 772.303 421.976C780.249 435.743 791.68 447.177 805.446 455.131C805.446 453.277 805.446 416.078 805.446 382.798C805.448 366.905 801.266 351.29 793.32 337.524C785.373 323.757 773.943 312.323 760.176 304.369V304.369Z" fill="white" fill-opacity="0.05"/>
<path d="M706.284 470.134L706.231 470.164L768.911 506.363C782.656 514.301 798.251 518.481 814.127 518.481C830.002 518.481 845.597 514.301 859.343 506.363L859.395 506.333L796.715 470.134C782.97 462.196 767.375 458.016 751.5 458.016C735.625 458.016 720.03 462.195 706.284 470.134V470.134Z" fill="white" fill-opacity="0.05"/>
<path d="M868.072 491.3C868.072 489.447 868.072 452.248 868.072 418.967C868.074 403.074 863.892 387.46 855.945 373.693C847.999 359.927 836.568 348.492 822.802 340.539C822.802 343.929 822.802 380.263 822.802 412.871C822.8 428.764 826.982 444.379 834.928 458.145C842.874 471.912 854.305 483.346 868.072 491.3V491.3Z" fill="white" fill-opacity="0.05"/>
<path d="M993.324 563.628V563.568C993.326 547.693 989.148 532.097 981.212 518.346C973.275 504.595 961.858 493.174 948.108 485.23L885.428 449.031V449.091C885.427 464.967 889.604 480.563 897.541 494.314C905.478 508.064 916.895 519.486 930.645 527.43L993.324 563.628Z" fill="white" fill-opacity="0.05"/>
<path d="M1002 409.967V371.689L956.73 397.833C970.491 405.784 986.105 409.969 1002 409.967V409.967Z" fill="white" fill-opacity="0.05"/>
<path d="M885.428 376.761C885.426 392.635 889.603 408.231 897.54 421.982C905.476 435.733 916.893 447.154 930.643 455.099L993.323 491.297V491.236C993.324 475.361 989.147 459.766 981.21 446.016C973.273 432.266 961.857 420.845 948.107 412.901L885.428 376.703V376.761Z" fill="white" fill-opacity="0.05"/>
<path d="M894.105 361.669C907.867 369.617 923.48 373.802 939.374 373.802C955.268 373.802 970.881 369.617 984.643 361.669L1002 351.647V313.371C986.105 313.368 970.49 317.552 956.729 325.503L894.105 361.669Z" fill="white" fill-opacity="0.05"/>
<path d="M116.571 521.444V521.369L53.8916 557.566C40.1416 565.51 28.725 576.931 20.7887 590.681C12.8523 604.431 8.67556 620.027 8.67798 635.901V635.963C10.0574 635.167 42.4313 616.471 71.3691 599.759C85.1156 591.817 96.5293 580.4 104.464 566.653C112.398 552.906 116.573 537.314 116.571 521.444V521.444Z" fill="white" fill-opacity="0.05"/>
<path d="M116.571 593.766V593.699L53.893 629.901C40.1427 637.846 28.7259 649.267 20.7896 663.018C12.8532 676.768 8.67663 692.364 8.67944 708.239V708.299L71.3599 672.101C85.1099 664.157 96.5263 652.736 104.462 638.986C112.398 625.236 116.575 609.64 116.571 593.766V593.766Z" fill="white" fill-opacity="0.05"/>
<path d="M170.469 759.528L170.52 759.498L107.841 723.301C94.0958 715.361 78.5005 711.182 62.6251 711.182C46.7497 711.182 31.1545 715.361 17.4089 723.301L17.3574 723.33L80.0352 759.527C93.7809 767.467 109.376 771.647 125.252 771.647C141.128 771.647 156.723 767.467 170.469 759.528V759.528Z" fill="white" fill-opacity="0.05"/>
<path d="M133.926 521.369C133.926 523.229 133.926 560.424 133.926 593.702C133.924 609.595 138.106 625.209 146.053 638.976C153.999 652.743 165.43 664.177 179.196 672.131C179.196 670.277 179.196 633.078 179.196 599.798C179.198 583.905 175.016 568.29 167.07 554.524C159.123 540.757 147.693 529.323 133.926 521.369V521.369Z" fill="white" fill-opacity="0.05"/>
<path d="M233.093 723.363L233.145 723.332L170.465 687.134C156.72 679.195 141.125 675.016 125.25 675.016C109.375 675.016 93.7797 679.195 80.0344 687.134L79.981 687.164L142.661 723.363C156.406 731.301 172.001 735.481 187.877 735.481C203.752 735.481 219.347 731.301 233.093 723.363V723.363Z" fill="white" fill-opacity="0.05"/>
<path d="M241.822 708.296C241.822 706.443 241.822 669.244 241.822 635.964C241.824 620.071 237.642 604.456 229.695 590.69C221.749 576.923 210.318 565.489 196.552 557.535C196.552 560.926 196.552 597.259 196.552 629.867C196.55 645.761 200.732 661.375 208.678 675.142C216.625 688.908 228.055 700.343 241.822 708.296V708.296Z" fill="white" fill-opacity="0.05"/>
<path d="M492.321 593.703L492.254 593.741C478.507 601.682 467.093 613.1 459.159 626.846C451.224 640.593 447.048 656.184 447.05 672.055C447.05 705.479 447.05 742.87 447.05 744.463L447.104 744.433C460.855 736.489 472.271 725.068 480.208 711.318C488.144 697.568 492.321 681.972 492.319 666.098C492.321 632.298 492.321 594.526 492.321 593.703Z" fill="white" fill-opacity="0.05"/>
<path d="M384.481 780.598C398.231 772.654 409.648 761.233 417.585 747.483C425.522 733.733 429.7 718.137 429.698 702.262C429.698 668.681 429.698 631.09 429.698 629.867L429.643 629.899C415.893 637.842 404.477 649.262 396.54 663.012C388.604 676.762 384.427 692.357 384.429 708.231C384.429 741.882 384.429 779.57 384.429 780.628L384.481 780.598Z" fill="white" fill-opacity="0.05"/>
<path d="M367.074 780.568C367.076 764.693 362.899 749.097 354.962 735.346C347.025 721.595 335.608 710.174 321.858 702.23L259.179 666.031V666.091C259.177 681.967 263.354 697.563 271.291 711.314C279.228 725.064 290.645 736.486 304.396 744.43L367.074 780.628V780.568Z" fill="white" fill-opacity="0.05"/>
<path d="M421.018 614.834L483.643 578.668C469.881 570.72 454.267 566.535 438.374 566.535C422.48 566.535 406.866 570.72 393.105 578.668L330.48 614.834C344.242 622.782 359.855 626.967 375.749 626.967C391.643 626.967 407.256 622.782 421.018 614.834V614.834Z" fill="white" fill-opacity="0.05"/>
<path d="M304.394 672.099L367.073 708.297V708.236C367.075 692.361 362.897 676.766 354.96 663.016C347.024 649.266 335.607 637.845 321.857 629.901L259.177 593.701V593.761C259.176 609.636 263.353 625.232 271.29 638.983C279.227 652.733 290.643 664.154 304.394 672.099V672.099Z" fill="white" fill-opacity="0.05"/>
<path d="M421.018 542.503C407.256 534.554 391.643 530.369 375.749 530.369C359.855 530.369 344.241 534.554 330.48 542.503L267.855 578.668C281.617 586.616 297.23 590.801 313.124 590.801C329.018 590.801 344.632 586.616 358.393 578.668L421.018 542.503Z" fill="white" fill-opacity="0.05"/>
<path d="M617.571 521.444V521.369L554.892 557.566C541.142 565.51 529.725 576.931 521.789 590.681C513.852 604.431 509.676 620.027 509.678 635.901V635.963C511.057 635.167 543.431 616.471 572.369 599.759C586.116 591.817 597.529 580.4 605.464 566.653C613.398 552.906 617.573 537.314 617.571 521.444V521.444Z" fill="white" fill-opacity="0.05"/>
<path d="M617.571 593.766V593.699L554.893 629.901C541.142 637.846 529.726 649.267 521.789 663.018C513.853 676.768 509.676 692.364 509.679 708.239V708.299L572.36 672.101C586.11 664.157 597.526 652.736 605.462 638.986C613.398 625.236 617.574 609.64 617.571 593.766V593.766Z" fill="white" fill-opacity="0.05"/>
<path d="M671.469 759.528L671.52 759.498L608.841 723.301C595.096 715.361 579.5 711.182 563.625 711.182C547.75 711.182 532.154 715.361 518.409 723.301L518.357 723.33L581.035 759.527C594.781 767.467 610.376 771.647 626.252 771.647C642.128 771.647 657.723 767.467 671.469 759.528V759.528Z" fill="white" fill-opacity="0.05"/>
<path d="M634.926 521.369C634.926 523.229 634.926 560.424 634.926 593.702C634.924 609.595 639.106 625.209 647.053 638.976C654.999 652.743 666.43 664.177 680.196 672.131C680.196 670.277 680.196 633.078 680.196 599.798C680.198 583.905 676.016 568.29 668.07 554.524C660.123 540.757 648.693 529.323 634.926 521.369Z" fill="white" fill-opacity="0.05"/>
<path d="M734.093 723.363L734.145 723.332L671.465 687.134C657.72 679.195 642.125 675.016 626.25 675.016C610.375 675.016 594.78 679.195 581.034 687.134L580.981 687.164L643.661 723.363C657.406 731.301 673.001 735.481 688.877 735.481C704.752 735.481 720.347 731.301 734.093 723.363V723.363Z" fill="white" fill-opacity="0.05"/>
<path d="M742.822 708.296C742.822 706.443 742.822 669.244 742.822 635.964C742.824 620.071 738.642 604.456 730.695 590.69C722.749 576.923 711.318 565.489 697.552 557.535C697.552 560.926 697.552 597.259 697.552 629.867C697.55 645.761 701.732 661.375 709.678 675.142C717.624 688.908 729.055 700.343 742.822 708.296V708.296Z" fill="white" fill-opacity="0.05"/>
<path d="M993.321 593.703L993.254 593.741C979.507 601.682 968.093 613.1 960.158 626.846C952.224 640.593 948.048 656.184 948.05 672.055C948.05 705.479 948.05 742.87 948.05 744.463L948.104 744.433C961.855 736.489 973.271 725.068 981.208 711.318C989.144 697.568 993.321 681.972 993.319 666.098C993.321 632.298 993.321 594.526 993.321 593.703Z" fill="white" fill-opacity="0.05"/>
<path d="M885.481 780.598C899.231 772.654 910.649 761.234 918.586 747.483C926.523 733.733 930.7 718.137 930.698 702.262C930.698 668.681 930.698 631.09 930.698 629.867L930.643 629.899C916.893 637.842 905.477 649.262 897.54 663.012C889.604 676.762 885.427 692.357 885.429 708.231C885.429 741.882 885.429 779.57 885.429 780.628L885.481 780.598Z" fill="white" fill-opacity="0.05"/>
<path d="M868.074 780.568C868.076 764.693 863.898 749.097 855.962 735.346C848.025 721.595 836.608 710.174 822.858 702.23L760.178 666.031V666.091C760.177 681.967 764.354 697.563 772.291 711.314C780.228 725.064 791.645 736.486 805.395 744.43L868.074 780.628V780.568Z" fill="white" fill-opacity="0.05"/>
<path d="M922.017 614.834L984.642 578.668C970.881 570.72 955.267 566.535 939.373 566.535C923.479 566.535 907.866 570.72 894.104 578.668L831.48 614.834C845.241 622.782 860.855 626.967 876.749 626.967C892.643 626.967 908.256 622.782 922.017 614.834V614.834Z" fill="white" fill-opacity="0.05"/>
<path d="M805.394 672.099L868.073 708.297V708.236C868.075 692.361 863.897 676.766 855.96 663.016C848.024 649.266 836.607 637.845 822.857 629.901L760.178 593.703V593.763C760.177 609.638 764.354 625.233 772.291 638.983C780.227 652.733 791.644 664.154 805.394 672.099V672.099Z" fill="white" fill-opacity="0.05"/>
<path d="M922.018 542.503C908.256 534.554 892.643 530.369 876.749 530.369C860.855 530.369 845.241 534.554 831.48 542.503L768.855 578.668C782.617 586.616 798.231 590.801 814.125 590.801C830.018 590.801 845.632 586.616 859.394 578.668L922.018 542.503Z" fill="white" fill-opacity="0.05"/>
<path d="M8.67603 738.371C8.67603 740.231 8.67603 777.426 8.67603 810.703C8.67434 831.585 15.8898 851.825 29.1015 868H53.947C53.947 853.922 53.947 834.79 53.947 816.8C53.9489 800.906 49.7665 785.292 41.8201 771.526C33.8736 757.759 22.4429 746.324 8.67603 738.371V738.371Z" fill="white" fill-opacity="0.05"/>
<path d="M116.571 852.966C116.573 837.072 112.391 821.458 104.445 807.691C96.4984 793.925 85.0677 782.49 71.3009 774.537C71.3009 777.928 71.3009 814.261 71.3009 846.869C71.3018 853.986 72.1419 861.079 73.8039 867.999H116.571V852.966Z" fill="white" fill-opacity="0.05"/>
<path d="M367.071 810.703L367.004 810.74C356.368 816.885 347.095 825.131 339.751 834.976C332.407 844.82 327.147 856.056 324.289 867.999H367.071C367.071 838.95 367.071 811.404 367.071 810.703Z" fill="white" fill-opacity="0.05"/>
<path d="M304.446 846.867L304.391 846.899C294.911 852.372 286.505 859.521 279.581 867.998H304.447C304.446 855.821 304.446 847.433 304.446 846.867Z" fill="white" fill-opacity="0.05"/>
<path d="M295.768 831.834L358.393 795.668C344.631 787.72 329.017 783.535 313.124 783.535C297.23 783.535 281.616 787.72 267.855 795.668L205.23 831.834C218.992 839.782 234.605 843.967 250.499 843.967C266.393 843.967 282.006 839.782 295.768 831.834V831.834Z" fill="white" fill-opacity="0.05"/>
<path d="M196.607 846.899L133.927 810.701V810.761C133.926 831.621 141.135 851.841 154.335 867.998H221.418C214.495 859.521 206.088 852.372 196.607 846.899Z" fill="white" fill-opacity="0.05"/>
<path d="M233.143 795.667L295.768 759.503C282.006 751.554 266.393 747.369 250.499 747.369C234.605 747.369 218.991 751.554 205.23 759.503L142.605 795.668C156.367 803.616 171.98 807.801 187.874 807.801C203.768 807.801 219.382 803.616 233.143 795.667V795.667Z" fill="white" fill-opacity="0.05"/>
<path d="M492.321 738.444V738.369L429.642 774.566C415.892 782.51 404.475 793.931 396.539 807.681C388.602 821.431 384.425 837.027 384.428 852.901V852.963L447.119 816.759C460.866 808.817 472.279 797.399 480.213 783.653C488.148 769.906 492.323 754.314 492.321 738.444V738.444Z" fill="white" fill-opacity="0.05"/>
<path d="M492.321 810.765V810.701L429.643 846.898C420.162 852.37 411.755 859.52 404.832 867.997H471.918C485.116 851.841 492.324 831.623 492.321 810.765Z" fill="white" fill-opacity="0.05"/>
<path d="M509.676 738.371C509.676 740.231 509.676 777.426 509.676 810.703C509.674 831.585 516.89 851.825 530.101 868H554.947C554.947 853.922 554.947 834.79 554.947 816.8C554.949 800.906 550.766 785.292 542.82 771.526C534.873 757.759 523.443 746.324 509.676 738.371V738.371Z" fill="white" fill-opacity="0.05"/>
<path d="M617.571 852.966C617.573 837.072 613.391 821.458 605.445 807.691C597.498 793.925 586.068 782.49 572.301 774.537C572.301 777.928 572.301 814.261 572.301 846.869C572.302 853.986 573.142 861.079 574.804 867.999H617.571V852.966Z" fill="white" fill-opacity="0.05"/>
<path d="M868.071 810.703L868.004 810.74C857.368 816.885 848.095 825.131 840.751 834.976C833.407 844.82 828.147 856.056 825.289 867.999H868.071C868.071 838.95 868.071 811.404 868.071 810.703Z" fill="white" fill-opacity="0.05"/>
<path d="M805.446 846.867L805.392 846.899C795.911 852.371 787.505 859.521 780.582 867.998H805.447C805.447 855.821 805.446 847.433 805.446 846.867Z" fill="white" fill-opacity="0.05"/>
<path d="M796.767 831.834L859.392 795.668C845.631 787.72 830.017 783.535 814.123 783.535C798.229 783.535 782.616 787.72 768.854 795.668L706.23 831.834C719.991 839.782 735.605 843.967 751.499 843.967C767.393 843.967 783.006 839.782 796.767 831.834V831.834Z" fill="white" fill-opacity="0.05"/>
<path d="M697.607 846.899L634.927 810.701V810.761C634.926 831.621 642.135 851.841 655.335 867.998H722.418C715.495 859.521 707.088 852.372 697.607 846.899V846.899Z" fill="white" fill-opacity="0.05"/>
<path d="M734.143 795.667L796.768 759.503C783.006 751.554 767.393 747.369 751.499 747.369C735.605 747.369 719.991 751.554 706.23 759.503L643.605 795.668C657.367 803.616 672.981 807.801 688.875 807.801C704.768 807.801 720.382 803.616 734.143 795.667V795.667Z" fill="white" fill-opacity="0.05"/>
<path d="M993.32 738.444V738.369L930.641 774.566C916.891 782.51 905.475 793.931 897.538 807.681C889.602 821.431 885.425 837.027 885.428 852.901V852.963L948.119 816.759C961.865 808.817 973.279 797.399 981.213 783.653C989.148 769.906 993.323 754.314 993.32 738.444V738.444Z" fill="white" fill-opacity="0.05"/>
<path d="M993.321 810.765V810.701L930.643 846.898C921.162 852.37 912.755 859.52 905.832 867.997H972.918C986.116 851.841 993.324 831.623 993.321 810.765V810.765Z" fill="white" fill-opacity="0.05"/>
</svg>
