<svg width="70" height="70" viewBox="0 0 70 70" fill="none" xmlns="http://www.w3.org/2000/svg">
<g clip-path="url(#clip0_4136_17665)">
<rect width="70" height="70" fill="#F3EEFB"/>
<circle cx="35" cy="35" r="35" fill="#F3EEFB"/>
<path d="M20.356 37.4261C21.9858 39.0558 31.8468 47.2586 32.5308 47.9425C33.2131 48.6249 34.1066 48.9645 35 48.9645C35.8934 48.9645 36.7869 48.6233 37.4692 47.9425C38.1548 47.2586 48.0158 39.0543 49.644 37.4261C53.3938 33.6762 53.3938 27.5984 49.644 23.8485C45.8941 20.0987 39.8163 20.0987 36.0664 23.8485C35.6602 24.2548 35.319 24.6991 35 25.1546C34.681 24.6991 34.3398 24.2548 33.9336 23.8485C30.1837 20.0987 24.1059 20.0987 20.356 23.8485C16.6062 27.5984 16.6062 33.6762 20.356 37.4261Z" fill="#8F5CDB"/>
</g>
<defs>
<clipPath id="clip0_4136_17665">
<rect width="70" height="70" fill="white"/>
</clipPath>
</defs>
</svg>
