<svg width="112" height="112" viewBox="0 0 112 112" fill="none" xmlns="http://www.w3.org/2000/svg">
<g clip-path="url(#clip0_3903_25730)">
<rect width="112" height="112" fill="#F3EEFB"/>
<circle cx="56" cy="56" r="56" fill="#F3EEFB"/>
<path d="M80.7817 49.3879C80.0613 49.3879 79.3352 49.21 78.6615 48.8367L58.7169 37.7547C57.0138 36.8099 54.9841 36.8099 53.281 37.7547L33.3364 48.8367C31.2221 50.009 28.5624 49.2508 27.3872 47.1365C26.2148 45.0251 26.973 42.3625 29.0874 41.1872L49.0319 30.1053C53.3947 27.6789 58.6032 27.6819 62.966 30.1053L82.9106 41.1872C85.022 42.3596 85.7831 45.0222 84.6108 47.1365C83.8088 48.5771 82.3186 49.3879 80.7817 49.3879Z" fill="#8F5CDB"/>
<path opacity="0.35" d="M77.7523 40.3767L60.2545 30.6654C57.6006 29.2072 54.3927 29.2072 51.7389 30.6654L34.2411 40.3767C31.4706 41.9223 29.75 44.8386 29.75 48.0465V74.964C29.75 79.7963 33.6666 83.7129 38.4989 83.7129H73.4945C78.3268 83.7129 82.2434 79.7963 82.2434 74.964V48.0465C82.2434 44.8678 80.5228 41.9223 77.7523 40.3767Z" fill="#8F5CDB"/>
<path d="M55.9964 77.8803C54.3866 77.8803 53.0801 76.5738 53.0801 74.964V51.6336C53.0801 50.0238 54.3866 48.7173 55.9964 48.7173C57.6062 48.7173 58.9127 50.0238 58.9127 51.6336V74.964C58.9127 76.5738 57.6062 77.8803 55.9964 77.8803Z" fill="#8F5CDB"/>
<path d="M41.4141 63.2991C41.4141 61.6893 42.7206 60.3828 44.3304 60.3828H67.6607C69.2705 60.3828 70.577 61.6893 70.577 63.2991C70.577 64.9089 69.2705 66.2154 67.6607 66.2154H44.3304C42.7206 66.2154 41.4141 64.9089 41.4141 63.2991Z" fill="#8F5CDB"/>
</g>
<defs>
<clipPath id="clip0_3903_25730">
<rect width="112" height="112" fill="white"/>
</clipPath>
</defs>
</svg>
