<svg width="60" height="60" viewBox="0 0 60 60" fill="none" xmlns="http://www.w3.org/2000/svg">
<rect width="60" height="60" fill="#F3EEFB"/>
<path opacity="0.35" d="M13.9756 40.653V31.3579C13.9756 30.2651 14.7271 29.3149 15.791 29.0618L19.4844 28.1885C21.372 27.7414 23.354 27.9161 25.1358 28.6836L32.1524 31.7088C34.3781 32.6686 35.3811 35.2708 34.3733 37.4756L34.971 38.2592L42.4266 35.5977C43.8415 35.0721 45.4102 35.8236 45.8876 37.2545C46.3075 38.5139 45.737 39.8903 44.5497 40.4848L37.1421 44.215C35.6664 44.9521 33.9583 45.0739 32.3928 44.5531L22.5545 41.2731C21.1524 40.8053 19.6382 40.8021 18.233 41.2603L15.8744 42.0311C14.9386 42.3371 13.9756 41.6385 13.9756 40.653Z" fill="#8F5CDB"/>
<path d="M29.8162 23.4025C30.6382 24.2245 35.6167 28.3665 35.9628 28.7126C36.3073 29.0571 36.7575 29.2285 37.2094 29.2285C37.6613 29.2285 38.1115 29.0571 38.456 28.7126C38.8021 28.3665 43.7806 24.2261 44.6026 23.4025C46.4949 21.5101 46.4949 18.44 44.6026 16.5477C42.7102 14.6553 39.6401 14.6553 37.7478 16.5477C37.5427 16.7528 37.3696 16.9771 37.2094 17.2062C37.0492 16.9771 36.8761 16.7528 36.671 16.5477C34.7787 14.6553 31.7086 14.6553 29.8162 16.5477C27.9239 18.44 27.9239 21.5101 29.8162 23.4025Z" fill="#8F5CDB"/>
<path opacity="0.35" d="M13.9756 40.653V31.3579C13.9756 30.2651 14.7271 29.3149 15.791 29.0618L19.4844 28.1885C21.372 27.7414 23.354 27.9161 25.1358 28.6836L32.1524 31.7088C34.3781 32.6686 35.3811 35.2708 34.3733 37.4756L34.971 38.2592L42.4266 35.5977C43.8415 35.0721 45.4102 35.8236 45.8876 37.2545C46.3075 38.5139 45.737 39.8903 44.5497 40.4848L37.1421 44.215C35.6664 44.9521 33.9583 45.0739 32.3928 44.5531L22.5545 41.2731C21.1524 40.8053 19.6382 40.8021 18.233 41.2603L15.8744 42.0311C14.9386 42.3371 13.9756 41.6385 13.9756 40.653Z" fill="#8F5CDB"/>
<path d="M29.8162 23.4025C30.6382 24.2245 35.6167 28.3665 35.9628 28.7126C36.3073 29.0571 36.7575 29.2285 37.2094 29.2285C37.6613 29.2285 38.1115 29.0571 38.456 28.7126C38.8021 28.3665 43.7806 24.2261 44.6026 23.4025C46.4949 21.5101 46.4949 18.44 44.6026 16.5477C42.7102 14.6553 39.6401 14.6553 37.7478 16.5477C37.5427 16.7528 37.3696 16.9771 37.2094 17.2062C37.0492 16.9771 36.8761 16.7528 36.671 16.5477C34.7787 14.6553 31.7086 14.6553 29.8162 16.5477C27.9239 18.44 27.9239 21.5101 29.8162 23.4025Z" fill="#8F5CDB"/>
</svg>
