<svg width="60" height="60" viewBox="0 0 60 60" fill="none" xmlns="http://www.w3.org/2000/svg">
<rect width="60" height="60" fill="#F3EEFB"/>
<path d="M27.7157 41.9727C27.083 41.34 17.9605 33.7517 16.4528 32.244C12.9838 28.775 12.9838 23.1523 16.4528 19.6833C19.9218 16.2143 25.5445 16.2143 29.0135 19.6833C29.3893 20.0591 29.7049 20.4702 30 20.8915V42.9182C29.1735 42.9182 28.347 42.604 27.7157 41.9727Z" fill="#8F5CDB"/>
<path opacity="0.35" d="M32.2843 41.9727C31.653 42.6025 30.8265 42.9182 30 42.9182V20.8915C30.2951 20.4702 30.6107 20.0591 30.9865 19.6833C34.4555 16.2143 40.0782 16.2143 43.5472 19.6833C47.0162 23.1523 47.0162 28.775 43.5472 32.244C42.041 33.7502 32.9185 41.34 32.2843 41.9727Z" fill="#8F5CDB"/>
</svg>
