<svg width="60" height="60" viewBox="0 0 60 60" fill="none" xmlns="http://www.w3.org/2000/svg">
<rect width="60" height="60" fill="#F3EEFB"/>
<path opacity="0.35" d="M39.9167 43.9759H21.8517C19.3572 43.9759 17.3354 41.9541 17.3354 39.4596V25.5571C17.3354 23.9162 18.2252 22.4063 19.6583 21.6099L28.6908 16.5923C30.0547 15.8351 31.7137 15.8351 33.0776 16.5923L42.1101 21.6099C43.5433 22.4063 44.433 23.9177 44.433 25.5571V39.4596C44.433 41.9541 42.4112 43.9759 39.9167 43.9759Z" fill="#8F5CDB"/>
<path d="M36.9057 33.4383H24.8624C24.0314 33.4383 23.3569 32.7639 23.3569 31.9329C23.3569 31.1019 24.0314 30.4275 24.8624 30.4275H36.9057C37.7367 30.4275 38.4111 31.1019 38.4111 31.9329C38.4111 32.7639 37.7367 33.4383 36.9057 33.4383Z" fill="#8F5CDB"/>
<path d="M29.3789 37.9545V25.9112C29.3789 25.0802 30.0533 24.4058 30.8843 24.4058C31.7153 24.4058 32.3897 25.0802 32.3897 25.9112V37.9545C32.3897 38.7855 31.7153 39.4599 30.8843 39.4599C30.0533 39.4599 29.3789 38.7855 29.3789 37.9545Z" fill="#8F5CDB"/>
</svg>
