<svg width="70" height="70" viewBox="0 0 70 70" fill="none" xmlns="http://www.w3.org/2000/svg">
<rect width="70" height="70" fill="#F3EEFB"/>
<path opacity="0.35" d="M51.4755 30.8827C51.4755 21.7841 44.0986 14.4072 34.9999 14.4072C25.9013 14.4072 18.5244 21.7841 18.5244 30.8827C18.5244 38.2226 26.894 48.701 31.7028 54.1132C33.4554 56.0862 36.5445 56.0862 38.2971 54.1132C43.1059 48.701 51.4755 38.2226 51.4755 30.8827Z" fill="#8F5CDB"/>
<path d="M34.9999 37.061C31.5877 37.061 28.8216 34.2949 28.8216 30.8827C28.8216 27.4705 31.5877 24.7043 34.9999 24.7043C38.4121 24.7043 41.1782 27.4705 41.1782 30.8827C41.1782 34.2949 38.4121 37.061 34.9999 37.061Z" fill="#8F5CDB"/>
</svg>
