<svg width="216" height="33" viewBox="0 0 216 33" fill="none" xmlns="http://www.w3.org/2000/svg">
<path opacity="0.8" d="M16.8285 14.0835C16.8285 20.3428 21.8447 26.6746 22.9975 28.047C23.1286 28.2032 23.354 28.2174 23.5045 28.0799C24.7449 26.9463 29.7911 21.8553 29.7592 14.0835C29.7272 6.26738 24.672 1.84005 23.4809 0.905118C23.337 0.792149 23.1416 0.807059 23.0155 0.939625C21.898 2.11447 16.8285 7.79109 16.8285 14.0835Z" fill="#8F5CDB"/>
<path opacity="0.5" d="M27.4052 13.1387C23.3434 17.901 23.0511 25.9737 23.0375 27.766C23.036 27.9699 23.1982 28.127 23.402 28.12C25.0814 28.0624 32.2244 27.4636 37.2435 21.5298C42.2913 15.5621 41.3181 8.91307 41.0186 7.42884C40.9824 7.2495 40.824 7.13401 40.6421 7.15305C39.0294 7.32178 31.4886 8.35105 27.4052 13.1387Z" fill="#8F5CDB"/>
<path opacity="0.3" d="M9.97088 22.1922C5.90906 17.4298 5.61677 9.35709 5.60322 7.56481C5.60168 7.36092 5.76388 7.20383 5.96767 7.21082C7.64707 7.2684 14.7901 7.86723 19.8092 13.801C24.857 19.7687 23.8837 26.4177 23.5843 27.902C23.5481 28.0813 23.3897 28.1968 23.2077 28.1778C21.5951 28.009 14.0542 26.9798 9.97088 22.1922Z" fill="#8F5CDB"/>
<path d="M55.8679 7.20645H68.2528V9.82972H58.7939V14.8997H67.1682V17.5482H58.7939V22.4416H68.2528V25.0397H55.8679V7.20645ZM70.9066 25.0397V7.20645H73.7821V25.0397H70.9066ZM89.5037 25.0397H86.8047L86.6534 23.1983C86.1657 23.9046 85.5519 24.4091 84.812 24.7118C84.0721 25.0144 83.2397 25.1826 82.3149 25.2162C81.2891 25.1994 80.4063 25.0144 79.6664 24.6613C78.9265 24.2914 78.3127 23.8037 77.825 23.1983C77.3374 22.5761 76.9758 21.8615 76.7404 21.0543C76.5218 20.2472 76.4125 19.3895 76.4125 18.4815C76.4125 17.4893 76.5386 16.5729 76.7909 15.7321C77.0599 14.8913 77.4551 14.1598 77.9764 13.5376C78.4977 12.9154 79.1367 12.4278 79.8934 12.0746C80.6501 11.7047 81.5329 11.5197 82.5419 11.5197C83.265 11.5197 83.9965 11.6374 84.7364 11.8728C85.4763 12.1083 86.1068 12.5455 86.6281 13.1845V7.20645H89.5037V25.0397ZM82.8698 14.1178C82.2308 14.1178 81.6843 14.2271 81.2302 14.4457C80.7762 14.6643 80.3979 14.967 80.0952 15.3537C79.8093 15.7405 79.5991 16.2029 79.4646 16.741C79.3301 17.2623 79.2628 17.8257 79.2628 18.431C79.2628 19.0364 79.3301 19.5997 79.4646 20.121C79.5991 20.6423 79.8093 21.0964 80.0952 21.4831C80.3979 21.8699 80.7762 22.181 81.2302 22.4164C81.7011 22.635 82.2644 22.7443 82.9202 22.7443C83.5424 22.7443 84.0805 22.6266 84.5346 22.3912C85.0054 22.1389 85.3922 21.811 85.6949 21.4074C86.0144 21.0039 86.2498 20.5414 86.4011 20.0201C86.5525 19.4988 86.6281 18.9607 86.6281 18.4058C86.6281 17.8173 86.5525 17.2623 86.4011 16.741C86.2666 16.2198 86.048 15.7741 85.7453 15.4042C85.4426 15.0174 85.0559 14.7147 84.585 14.4961C84.1142 14.2607 83.5424 14.1346 82.8698 14.1178ZM95.0036 19.3643C95.0373 19.852 95.1381 20.306 95.3063 20.7264C95.4745 21.1468 95.7015 21.5167 95.9873 21.8363C96.29 22.1389 96.6516 22.3828 97.072 22.5677C97.5092 22.7527 98.0137 22.8452 98.5854 22.8452C99.1908 22.8452 99.7457 22.7359 100.25 22.5173C100.755 22.2987 101.125 21.9203 101.36 21.3822H104.311C104.143 22.0549 103.866 22.635 103.479 23.1227C103.109 23.6103 102.663 24.0139 102.142 24.3334C101.637 24.6361 101.074 24.8631 100.452 25.0144C99.8466 25.149 99.1992 25.2162 98.5097 25.2162C97.4503 25.2162 96.517 25.0565 95.7099 24.737C94.9195 24.4175 94.2553 23.955 93.7172 23.3497C93.1791 22.7443 92.7755 22.0296 92.5065 21.2057C92.2542 20.3649 92.1281 19.4232 92.1281 18.3806C92.1281 17.3716 92.271 16.4552 92.5569 15.6312C92.8428 14.7904 93.2548 14.0673 93.7929 13.4619C94.3478 12.8566 95.012 12.3857 95.7856 12.0494C96.5591 11.6963 97.4419 11.5197 98.4341 11.5197C99.4766 11.5197 100.376 11.6963 101.133 12.0494C101.89 12.3857 102.52 12.8482 103.025 13.4367C103.546 14.0253 103.933 14.7147 104.185 15.5051C104.437 16.2954 104.563 17.153 104.563 18.0779C104.563 18.5151 104.538 18.9439 104.488 19.3643H95.0036ZM101.764 17.1951C101.73 16.1861 101.41 15.4042 100.805 14.8493C100.2 14.2943 99.4178 14.0169 98.4593 14.0169C97.9212 14.0169 97.4503 14.101 97.0467 14.2691C96.6432 14.4373 96.2984 14.6643 96.0126 14.9502C95.7435 15.236 95.5249 15.5723 95.3568 15.9591C95.1886 16.3459 95.0793 16.7579 95.0288 17.1951H101.764ZM107.166 25.0397V11.7467H109.865L110.016 13.6385C111.042 12.226 112.438 11.5197 114.203 11.5197C114.371 11.5197 114.531 11.5281 114.683 11.5449C114.851 11.5449 115.002 11.5533 115.137 11.5702V14.2439C114.935 14.2439 114.733 14.2523 114.531 14.2691C114.346 14.2691 114.161 14.2691 113.976 14.2691C113.236 14.2859 112.614 14.4205 112.11 14.6727C111.622 14.9081 111.218 15.2276 110.899 15.6312C110.596 16.0348 110.378 16.514 110.243 17.069C110.109 17.6071 110.041 18.1872 110.041 18.8094V25.0397H107.166ZM116.994 25.0397V7.20645H119.87V25.0397H116.994ZM135.289 11.7467V22.9209C135.289 23.6776 135.272 24.4511 135.238 25.2415C135.221 26.0318 135.087 26.8053 134.835 27.5621C134.448 28.7728 133.75 29.7229 132.741 30.4123C131.732 31.1018 130.378 31.4465 128.68 31.4465C127.671 31.4465 126.696 31.312 125.754 31.0429C124.829 30.7739 123.955 30.3283 123.131 29.7061C123.316 29.3193 123.492 28.9157 123.66 28.4953C123.845 28.0918 124.03 27.6882 124.215 27.2846C124.77 27.7218 125.401 28.0918 126.107 28.3944C126.83 28.6971 127.654 28.8485 128.579 28.8485C129.47 28.8485 130.168 28.6971 130.673 28.3944C131.177 28.0918 131.555 27.6798 131.808 27.1585C132.077 26.654 132.245 26.0654 132.312 25.3928C132.396 24.737 132.438 24.0644 132.438 23.3749C131.967 24.0475 131.379 24.5268 130.673 24.8127C129.983 25.0985 129.201 25.2415 128.327 25.2415C127.335 25.2415 126.485 25.0901 125.779 24.7874C125.073 24.4847 124.518 24.0644 124.114 23.5262C123.711 22.9881 123.425 22.3491 123.257 21.6092C123.089 20.8693 123.005 20.0622 123.005 19.1878V11.7467H125.855V18.6328C125.855 19.1709 125.889 19.6922 125.956 20.1967C126.04 20.6844 126.191 21.1216 126.41 21.5083C126.645 21.8783 126.965 22.181 127.368 22.4164C127.772 22.635 128.302 22.7443 128.957 22.7443C129.63 22.7443 130.185 22.6098 130.622 22.3407C131.076 22.0717 131.429 21.7269 131.682 21.3066C131.951 20.8693 132.136 20.3733 132.237 19.8183C132.354 19.2634 132.413 18.6917 132.413 18.1031V11.7467H135.289ZM146.345 9.60271C145.403 9.60271 144.588 9.77927 143.898 10.1324C143.226 10.4855 142.671 10.9564 142.233 11.5449C141.796 12.1335 141.468 12.8229 141.25 13.6133C141.048 14.3868 140.947 15.2024 140.947 16.06C140.947 16.9344 141.056 17.7668 141.275 18.5572C141.494 19.3475 141.821 20.0454 142.259 20.6507C142.713 21.2393 143.284 21.7101 143.974 22.0633C144.663 22.4164 145.479 22.593 146.421 22.593C147.581 22.593 148.548 22.3407 149.321 21.8363C150.112 21.3318 150.608 20.6507 150.81 19.7931H153.735C153.601 20.6507 153.315 21.4159 152.878 22.0885C152.457 22.7611 151.928 23.3329 151.289 23.8037C150.65 24.2577 149.91 24.6109 149.069 24.8631C148.228 25.0985 147.329 25.2162 146.37 25.2162C144.974 25.2162 143.747 24.9892 142.687 24.5352C141.645 24.0812 140.77 23.4506 140.064 22.6434C139.358 21.8363 138.828 20.8777 138.475 19.7679C138.122 18.6581 137.945 17.4389 137.945 16.1104C137.945 14.8156 138.122 13.6133 138.475 12.5034C138.845 11.3768 139.383 10.4099 140.089 9.60271C140.796 8.77873 141.67 8.13973 142.713 7.6857C143.772 7.21485 145 6.97943 146.395 6.97943C148.363 6.97943 149.986 7.44187 151.264 8.36674C152.542 9.29161 153.315 10.6537 153.584 12.453H150.709C150.49 11.5786 150.002 10.8891 149.246 10.3846C148.489 9.86335 147.522 9.60271 146.345 9.60271ZM164.81 23.4001C164.373 24.0223 163.793 24.4847 163.07 24.7874C162.347 25.0733 161.539 25.2162 160.648 25.2162C159.942 25.2162 159.294 25.1322 158.706 24.964C158.134 24.7958 157.63 24.5436 157.193 24.2073C156.755 23.8542 156.411 23.4253 156.158 22.9209C155.906 22.3996 155.78 21.811 155.78 21.1552C155.78 20.4321 155.923 19.8183 156.209 19.3139C156.495 18.7926 156.881 18.3722 157.369 18.0527C157.874 17.7332 158.462 17.4978 159.135 17.3464C159.807 17.1783 160.514 17.0942 161.254 17.0942H164.659C164.659 16.1189 164.44 15.3621 164.003 14.824C163.566 14.2859 162.801 14.0085 161.708 13.9916C161.069 13.9916 160.514 14.101 160.043 14.3196C159.589 14.5382 159.286 14.8997 159.135 15.4042H156.184C156.284 14.6979 156.511 14.101 156.865 13.6133C157.235 13.1256 157.672 12.7221 158.176 12.4025C158.698 12.083 159.269 11.856 159.891 11.7215C160.53 11.587 161.169 11.5197 161.808 11.5197C162.632 11.5197 163.398 11.629 164.104 11.8476C164.81 12.0662 165.424 12.4362 165.945 12.9575C166.534 13.5628 166.929 14.2859 167.131 15.1267C167.332 15.9675 167.433 16.884 167.433 17.8761V25.0397H164.936L164.81 23.4001ZM164.659 19.1373H161.884C161.396 19.1373 160.909 19.1793 160.421 19.2634C159.933 19.3307 159.513 19.5073 159.16 19.7931C158.824 20.0622 158.655 20.4573 158.655 20.9786C158.655 21.6176 158.882 22.1053 159.337 22.4416C159.807 22.7611 160.379 22.9209 161.052 22.9209C161.573 22.9209 162.052 22.8536 162.489 22.7191C162.944 22.5846 163.33 22.366 163.65 22.0633C163.969 21.7438 164.213 21.3486 164.381 20.8777C164.566 20.3901 164.659 19.8099 164.659 19.1373ZM170.521 25.0397V11.7467H173.22L173.371 13.6385C174.397 12.226 175.793 11.5197 177.558 11.5197C177.727 11.5197 177.886 11.5281 178.038 11.5449C178.206 11.5449 178.357 11.5533 178.492 11.5702V14.2439C178.29 14.2439 178.088 14.2523 177.886 14.2691C177.701 14.2691 177.516 14.2691 177.331 14.2691C176.591 14.2859 175.969 14.4205 175.465 14.6727C174.977 14.9081 174.574 15.2276 174.254 15.6312C173.951 16.0348 173.733 16.514 173.598 17.069C173.464 17.6071 173.396 18.1872 173.396 18.8094V25.0397H170.521ZM182.474 19.3643C182.508 19.852 182.609 20.306 182.777 20.7264C182.945 21.1468 183.172 21.5167 183.458 21.8363C183.76 22.1389 184.122 22.3828 184.542 22.5677C184.98 22.7527 185.484 22.8452 186.056 22.8452C186.661 22.8452 187.216 22.7359 187.721 22.5173C188.225 22.2987 188.595 21.9203 188.83 21.3822H191.782C191.613 22.0549 191.336 22.635 190.949 23.1227C190.579 23.6103 190.134 24.0139 189.612 24.3334C189.108 24.6361 188.545 24.8631 187.922 25.0144C187.317 25.149 186.67 25.2162 185.98 25.2162C184.921 25.2162 183.987 25.0565 183.18 24.737C182.39 24.4175 181.726 23.955 181.188 23.3497C180.65 22.7443 180.246 22.0296 179.977 21.2057C179.725 20.3649 179.599 19.4232 179.599 18.3806C179.599 17.3716 179.741 16.4552 180.027 15.6312C180.313 14.7904 180.725 14.0673 181.263 13.4619C181.818 12.8566 182.482 12.3857 183.256 12.0494C184.03 11.6963 184.912 11.5197 185.904 11.5197C186.947 11.5197 187.847 11.6963 188.603 12.0494C189.36 12.3857 189.991 12.8482 190.495 13.4367C191.016 14.0253 191.403 14.7147 191.655 15.5051C191.908 16.2954 192.034 17.153 192.034 18.0779C192.034 18.5151 192.009 18.9439 191.958 19.3643H182.474ZM189.234 17.1951C189.2 16.1861 188.881 15.4042 188.276 14.8493C187.67 14.2943 186.888 14.0169 185.93 14.0169C185.392 14.0169 184.921 14.101 184.517 14.2691C184.114 14.4373 183.769 14.6643 183.483 14.9502C183.214 15.236 182.995 15.5723 182.827 15.9591C182.659 16.3459 182.55 16.7579 182.499 17.1951H189.234ZM211.903 7.20645H215.333L209.607 16.0852L215.51 25.0397H212.054L207.791 18.4058L203.428 25.0397H200.098L206.026 16.1104L200.275 7.20645H203.755L207.842 13.8403L211.903 7.20645Z" fill="#090717"/>
</svg>
