<svg width="70" height="70" viewBox="0 0 70 70" fill="none" xmlns="http://www.w3.org/2000/svg">
<rect width="70" height="70" fill="#F3EEFB"/>
<path opacity="0.35" d="M51.215 39.2374C51.2434 38.8448 51.274 38.4522 51.274 38.0514C51.274 33.2364 49.1706 28.9238 45.8466 25.9436C46.345 25.1401 46.5871 24.1657 46.4162 23.1425L45.7388 19.074C45.4113 17.113 43.7127 15.6748 41.7252 15.6748H28.2749C26.2874 15.6748 24.5888 17.113 24.2613 19.074L23.5839 23.1425C23.413 24.1657 23.6531 25.1381 24.1535 25.9436C20.8295 28.9238 18.7261 33.2364 18.7261 38.0514C18.7261 38.4522 18.7566 38.8448 18.7851 39.2374C17.5727 39.6402 16.6919 40.7712 16.6919 42.1199C16.6919 43.8043 18.0589 45.1713 19.7433 45.1713C19.9528 45.1713 20.1562 45.1509 20.3535 45.1102C22.9838 50.5579 28.5454 54.3253 35 54.3253C41.4547 54.3253 47.0163 50.5579 49.6466 45.1102C49.8439 45.1509 50.0473 45.1713 50.2568 45.1713C51.9412 45.1713 53.3082 43.8043 53.3082 42.1199C53.3082 40.7712 52.4274 39.6402 51.215 39.2374Z" fill="#8F5CDB"/>
<path d="M45.6595 18.7261C45.7001 18.8278 45.7205 18.9498 45.7408 19.0719L46.4121 23.1404C46.8393 25.6221 44.9068 27.8802 42.4047 27.8802H35H27.5954C25.0933 27.8802 23.1608 25.6221 23.588 23.1404L24.2593 19.0719C24.2796 18.9498 24.2999 18.8278 24.3406 18.7261C20.8824 20.15 16.6919 23.6082 16.6919 31.9486V38.0513C16.6919 39.1702 17.6073 40.0856 18.7261 40.0856C19.8653 40.0856 20.8011 39.2109 20.7604 37.97C20.6587 34.5728 23.8117 31.9486 27.2089 31.9486H35H42.7912C46.1884 31.9486 49.3414 34.5728 49.2397 37.97C49.199 39.2109 50.1348 40.0856 51.274 40.0856C52.3928 40.0856 53.3082 39.1702 53.3082 38.0513V31.9486C53.3082 23.6082 49.1177 20.15 45.6595 18.7261Z" fill="#8F5CDB"/>
<path d="M35.5249 17.709H34.4773C33.6412 17.709 32.9658 18.3844 32.9658 19.2184V24.3345C32.9658 25.1706 33.6412 25.8459 34.4752 25.8459H35.5229C36.3589 25.8459 37.0343 25.1706 37.0343 24.3365V19.2184C37.0343 18.3844 36.3589 17.709 35.5249 17.709Z" fill="#8F5CDB"/>
<path d="M39.0686 22.3017V21.2521C39.0686 20.418 38.3932 19.7427 37.5592 19.7427H32.4431C31.607 19.7427 30.9316 20.418 30.9316 21.2521V22.2997C30.9316 23.1358 31.607 23.8112 32.441 23.8112H37.5572C38.3932 23.8112 39.0686 23.1358 39.0686 22.3017Z" fill="#8F5CDB"/>
</svg>
