<svg width="71" height="42" viewBox="0 0 71 42" fill="none" xmlns="http://www.w3.org/2000/svg">
<path d="M69.818 18.5767C62.6354 16.7966 55.1229 18.5041 47.7937 18.3951C48.1968 14.8348 46.6943 12.8004 42.48 14.1082C40.3912 14.7621 38.4123 15.7067 36.2502 16.1427C35.2607 16.3606 34.0514 16.6149 33.0253 16.397C32.8055 16.3606 32.6222 16.288 32.4756 16.2153C33.575 15.2344 33.9048 13.8902 32.6955 12.1828C32.3291 11.6378 31.4862 11.5652 31.1197 12.1828C30.4601 13.309 30.1303 14.3989 30.1669 15.3071C28.811 15.9973 26.6856 16.4333 25.8427 16.9782C23.3508 18.5767 22.288 21.4467 20.529 23.7355C18.5868 21.8463 17.011 19.3396 14.4824 18.2497C14.2259 18.1408 14.006 18.0681 13.7495 17.9954C14.1526 16.5423 14.5557 15.0528 14.9588 13.5996C15.4719 13.3816 16.0216 13.1637 16.5346 12.982C20.0526 11.7468 23.6806 10.8023 27.3086 9.93036C34.6378 8.18655 42.0403 6.8787 49.4794 5.86148C50.249 5.7525 50.0658 4.40831 49.2962 4.48097C41.7105 5.20756 34.1247 6.0068 26.7222 7.78693C22.8744 8.69516 19.2098 9.82137 15.6185 11.1656C16.498 7.93225 17.4508 4.66262 18.4768 1.46565C18.6234 0.993367 17.8905 0.811721 17.7073 1.24767C16.3147 4.66262 15.1787 8.18655 14.1526 11.7105C11.1843 12.873 8.28924 14.1445 5.3942 15.5977C4.58799 15.9973 5.21097 17.0509 5.94389 16.9056C8.54576 16.5059 10.9644 15.3071 13.4197 14.1809C13.0899 15.3797 12.7601 16.5423 12.4302 17.7411C10.3781 17.8138 8.47247 19.158 7.04327 20.6475C2.6091 25.4429 -0.432524 34.1256 1.69295 40.3016C1.80289 40.6649 2.16935 40.9192 2.57245 40.8102C7.73955 39.4297 9.6085 32.0912 10.9644 27.7317C11.7706 25.116 12.5035 22.5003 13.2365 19.8846C13.8228 20.0299 14.3725 20.3568 14.9222 20.8291C16.7178 22.4276 18.0005 24.5347 19.8694 26.0969C20.3092 26.4602 20.9688 26.5328 21.3719 26.0969C22.8377 24.5347 23.7539 22.7182 24.9266 20.9744C26.4657 18.722 28.1514 18.3587 30.4601 17.4142C30.5701 17.3778 30.7166 17.3052 30.8266 17.2689C31.5229 17.9954 32.6955 18.3951 34.4545 18.3224C36.3968 18.2134 38.3024 17.7048 40.1347 17.0509C41.344 16.6149 42.5533 16.07 43.7993 15.7794C46.3645 15.1981 46.0347 17.0872 45.5583 19.1217C45.4117 19.8119 45.8515 20.3932 46.5477 20.4295C54.2068 20.9018 61.9757 19.9936 69.6348 19.5939C70.2578 19.5576 70.4043 18.722 69.818 18.5767ZM10.3048 25.116C9.05881 29.2575 7.48303 37.2863 2.86562 39.2117C1.47307 33.9076 3.92836 27.2594 7.07992 23.0815C8.28924 21.4831 10.0116 19.9572 11.8439 19.7392C11.3309 21.5557 10.8178 23.3722 10.3048 25.116Z" fill="#8F5CDB"/>
<path fill-rule="evenodd" clip-rule="evenodd" d="M42.4801 14.1081C46.4465 12.8772 48.0107 14.6069 47.845 17.7828C47.8346 17.9813 47.8175 18.1855 47.7938 18.3949C47.999 18.398 48.2043 18.3996 48.4098 18.3999C50.717 18.4035 53.0409 18.2423 55.3655 18.081C60.2284 17.7436 65.0945 17.4059 69.8181 18.5766C70.4044 18.7219 70.2578 19.5575 69.6348 19.5938C67.5872 19.7006 65.5318 19.8438 63.4727 19.9873C57.8297 20.3804 52.1592 20.7754 46.5478 20.4294C45.8515 20.393 45.4118 19.8118 45.5584 19.1215C46.0348 17.0871 46.3646 15.198 43.7994 15.7792C42.9132 15.986 42.0455 16.3213 41.1832 16.6546C40.8331 16.7899 40.4839 16.9249 40.1348 17.0508C38.3025 17.7047 36.3969 18.2133 34.4546 18.3223C32.6956 18.3949 31.5229 17.9953 30.8267 17.2687C30.7717 17.2869 30.7076 17.3141 30.6434 17.3414C30.5793 17.3686 30.5152 17.3959 30.4602 17.4141C30.1168 17.5546 29.7871 17.6822 29.4697 17.8051C27.6532 18.5085 26.2368 19.057 24.9266 20.9743C24.5762 21.4955 24.2486 22.0232 23.9224 22.5486C23.1572 23.7812 22.3997 25.0015 21.372 26.0967C20.9689 26.5327 20.3092 26.46 19.8695 26.0967C18.8862 25.2748 18.0651 24.3021 17.2463 23.3319C16.5089 22.4581 15.7732 21.5865 14.9223 20.829C14.5569 20.5151 14.1915 20.2653 13.8153 20.0905C13.682 20.0285 13.5473 19.9759 13.4108 19.9333C13.3531 19.9152 13.295 19.8989 13.2365 19.8844C12.5036 22.5001 11.7707 25.1158 10.9645 27.7316C10.8674 28.0436 10.7677 28.371 10.6644 28.7103C9.32411 33.1112 7.36975 39.5284 2.57254 40.8101C2.16943 40.9191 1.80297 40.6648 1.69303 40.3015C-0.432438 34.1255 2.60919 25.4428 7.04336 20.6474C8.47256 19.1579 10.3782 17.8137 12.4303 17.741C12.5952 17.1416 12.7601 16.5512 12.925 15.9609C13.0186 15.6258 13.1122 15.2908 13.2058 14.9541C13.2772 14.6975 13.3485 14.44 13.4198 14.1807C13.1938 14.2844 12.9682 14.3887 12.7427 14.4928C12.7255 14.5008 12.7084 14.5087 12.6912 14.5166C10.4837 15.5366 8.2882 16.5454 5.94398 16.9054C5.21106 17.0508 4.58807 15.9972 5.39429 15.5976C8.28933 14.1444 11.1844 12.8729 14.1527 11.7104C15.1788 8.18643 16.3148 4.66249 17.7074 1.24755C17.8906 0.811595 18.6235 0.993241 18.4769 1.46552C17.5278 4.42281 16.6413 7.44226 15.8176 10.4376C15.7508 10.6804 15.6845 10.923 15.6185 11.1654C15.8537 11.0774 16.0892 10.9903 16.3251 10.9041C19.6906 9.67467 23.1265 8.63556 26.7223 7.78681C34.1248 6.00667 41.7105 5.20743 49.2963 4.48085C50.0658 4.40819 50.2491 5.75237 49.4795 5.86136C42.0404 6.87857 34.6379 8.18643 27.3086 9.93023C23.6807 10.8021 20.0527 11.7467 16.5347 12.9819C16.0216 13.1635 15.472 13.3815 14.9589 13.5995C14.7574 14.3261 14.5558 15.0617 14.3543 15.7974C14.1527 16.5331 13.9511 17.2687 13.7496 17.9953C14.0061 18.068 14.226 18.1406 14.4825 18.2496C16.271 19.0205 17.5829 20.5003 18.8849 21.9689C19.2841 22.4193 19.6825 22.8687 20.0934 23.2962C20.2369 23.4455 20.382 23.5922 20.5291 23.7353C20.6547 23.5719 20.7767 23.4056 20.896 23.2369C21.3158 22.6432 21.7013 22.0211 22.086 21.4001C23.1229 19.7266 24.1551 18.0607 25.8428 16.9781C26.2733 16.6998 27.0384 16.4499 27.8647 16.18C28.6561 15.9215 29.5037 15.6447 30.167 15.307C30.1304 14.3987 30.4602 13.3088 31.1198 12.1826C31.4863 11.565 32.3291 11.6377 32.6956 12.1826C33.7202 13.6293 33.64 14.8152 32.9229 15.7403C32.7936 15.907 32.6437 16.0654 32.4757 16.2152C32.6223 16.2878 32.8055 16.3605 33.0254 16.3968C33.065 16.4052 33.1049 16.4129 33.145 16.42C34.1445 16.5952 35.299 16.3521 36.2503 16.1425C37.6232 15.8657 38.9223 15.3838 40.2225 14.9014C40.9699 14.6242 41.7177 14.3468 42.4801 14.1081ZM33.5898 15.8575C34.3713 15.9134 35.2653 15.732 36.1184 15.544L36.1291 15.5417C37.1642 15.333 38.1648 15.0007 39.1836 14.631C39.4517 14.5337 39.7226 14.4332 39.9959 14.3318C40.748 14.0528 41.5182 13.767 42.297 13.5232L42.2985 13.5228C44.4765 12.8469 46.1887 12.9597 47.2852 13.9766C48.2246 14.8478 48.5349 16.2265 48.4583 17.7872C50.7239 17.7887 52.9948 17.631 55.2911 17.4716C56.463 17.3902 57.6415 17.3084 58.8293 17.247C62.5384 17.0554 66.2848 17.0695 69.9655 17.9817C70.2603 18.0548 70.5031 18.2291 70.6514 18.4789C70.7944 18.7198 70.8264 18.9913 70.7833 19.2335C70.6966 19.7208 70.2883 20.1696 69.6705 20.2056L69.6668 20.2058C67.643 20.3114 65.6021 20.4536 63.5514 20.5965C57.8965 20.9905 52.1668 21.3896 46.5128 21.0412C45.9969 21.0135 45.5422 20.7789 45.2483 20.3904C44.9543 20.0019 44.8515 19.4998 44.9589 18.9942L44.9615 18.9818C45.0806 18.4733 45.1839 18.0013 45.2373 17.5819C45.2919 17.1534 45.2856 16.8407 45.2283 16.631C45.1798 16.4534 45.1083 16.3836 44.9985 16.3403C44.8441 16.2794 44.5282 16.2427 43.9366 16.3765C43.095 16.573 42.2908 16.884 41.4468 17.2103C41.0879 17.3491 40.7218 17.4906 40.3426 17.6273L40.3408 17.628C38.4799 18.2921 36.5126 18.8206 34.489 18.9342L34.4799 18.9347C32.8408 19.0024 31.5692 18.685 30.6973 17.9804C30.69 17.9831 30.6826 17.9857 30.6752 17.9883C30.3202 18.1333 29.9857 18.2633 29.6687 18.3866C27.8661 19.0875 26.6305 19.568 25.4339 21.3183C25.0866 21.8348 24.7732 22.3399 24.4546 22.8535C24.2347 23.2079 24.0123 23.5664 23.7744 23.9356C23.2076 24.8153 22.5894 25.6947 21.8203 26.5146C21.1238 27.2657 20.0774 27.0634 19.4792 26.5692L19.4764 26.567C18.4958 25.7473 17.6765 24.7909 16.9002 23.872C16.8622 23.827 16.8243 23.7821 16.7866 23.7374C16.0429 22.8564 15.3343 22.017 14.5188 21.2904C14.2168 21.0313 13.9289 20.8324 13.6472 20.69C12.9736 23.0924 12.2931 25.5017 11.5502 27.9121L11.5497 27.9136C11.4544 28.2199 11.356 28.5433 11.2534 28.8802C10.6362 30.9081 9.86997 33.4253 8.7453 35.6631C7.43709 38.2662 5.57111 40.6433 2.73073 41.4022C2.73132 41.402 2.73191 41.4018 2.7325 41.4017M2.73073 41.4022C1.96741 41.6075 1.30656 41.1177 1.11032 40.4915C-0.0038687 37.2453 0.250593 33.3961 1.3207 29.7827C2.39337 26.1607 4.30557 22.7055 6.59339 20.2313L6.60107 20.223C7.96927 18.797 9.84534 17.4077 11.9541 17.163C12.0811 16.7043 12.208 16.25 12.3347 15.7965C12.3817 15.6282 12.4288 15.4595 12.4757 15.2912C10.4279 16.2339 8.30678 17.1606 6.04844 17.5094C5.35941 17.6384 4.78266 17.2109 4.54306 16.7285C4.41615 16.4729 4.35423 16.1506 4.4476 15.823C4.54471 15.4822 4.78743 15.2148 5.12073 15.0492C7.9425 13.6328 10.7631 12.3885 13.6487 11.25C14.6558 7.81166 15.7744 4.36475 17.1399 1.01613L17.1424 1.01007C17.3829 0.437757 17.9726 0.317098 18.3734 0.423681C18.5824 0.479283 18.8054 0.607227 18.9546 0.831548C19.1148 1.07248 19.1496 1.36571 19.0622 1.64719L19.0605 1.65282C18.1588 4.46236 17.3134 7.32948 16.5244 10.1799C19.7808 9.00717 23.1063 8.01066 26.5802 7.19064C34.0293 5.39943 41.6541 4.59717 49.2378 3.87078C49.6304 3.83371 49.9665 3.98424 50.1988 4.22503C50.4183 4.45248 50.5354 4.74547 50.5725 5.02129C50.6095 5.29662 50.5744 5.61225 50.4177 5.89035C50.2505 6.18696 49.9574 6.41265 49.5654 6.46816L49.5625 6.46857C42.1392 7.48361 34.7571 8.78806 27.4512 10.5263C23.8292 11.3968 20.2261 12.3354 16.7387 13.5598C16.3288 13.7049 15.8925 13.8748 15.4702 14.0496C15.2954 14.6816 15.1206 15.3197 14.9455 15.9586C14.796 16.5045 14.6461 17.0517 14.4963 17.5947C14.5695 17.6224 14.6443 17.6525 14.7222 17.6856L14.7251 17.6868C16.1022 18.2804 17.1963 19.2497 18.1692 20.2698C18.5727 20.6929 18.964 21.1343 19.3457 21.5649C19.4237 21.6529 19.5013 21.7404 19.5785 21.8272C19.8737 22.1592 20.1649 22.4827 20.4597 22.7925C20.8385 22.2503 21.1845 21.6913 21.5398 21.1173C21.8146 20.6733 22.0949 20.2204 22.4002 19.7595C23.2131 18.5321 24.1582 17.3308 25.5111 16.4628C26.0084 16.1416 26.8269 15.8742 27.5873 15.6259L27.646 15.6067C28.3216 15.386 28.9947 15.1661 29.5589 14.9169C29.6149 13.9588 29.9846 12.9082 30.591 11.8729L30.5928 11.8699C30.8989 11.3539 31.4196 11.1189 31.9261 11.1341C32.4162 11.1488 32.9022 11.3959 33.2002 11.8347C33.8592 12.7674 34.149 13.6738 34.0611 14.5337C34.011 15.0236 33.8418 15.4648 33.5898 15.8575M9.17041 26.8686C9.36152 26.1771 9.54119 25.527 9.71747 24.941C10.1331 23.5283 10.5488 22.0674 10.9652 20.5953C9.71748 21.0888 8.51418 22.2016 7.56904 23.4508C6.03742 25.4813 4.66959 28.1211 3.85698 30.8964C3.12261 33.4044 2.85226 35.9858 3.29097 38.311C5.01386 37.2777 6.28664 35.2064 7.28202 32.7635C8.0876 30.7864 8.66848 28.6847 9.17041 26.8686ZM3.42852 38.9391C7.01992 36.9512 8.63174 31.1195 9.77121 26.9968C9.95975 26.3146 10.1354 25.6793 10.3049 25.1158C10.7568 23.5798 11.2087 21.9873 11.6606 20.3882C11.7218 20.1719 11.7829 19.9555 11.844 19.7391C11.6167 19.7662 11.391 19.8133 11.1679 19.8783C9.59221 20.3368 8.13929 21.6812 7.08001 23.0814C4.04741 27.1016 1.65952 33.4091 2.72429 38.6054C2.76606 38.8092 2.81314 39.0114 2.86571 39.2116C3.05855 39.1312 3.24609 39.0401 3.42852 38.9391Z" fill="#8F5CDB"/>
</svg>
