<svg width="72" height="72" viewBox="0 0 72 72" fill="none" xmlns="http://www.w3.org/2000/svg">
<rect width="72" height="72" fill="#F8F8F9"/>
<path opacity="0.35" d="M19.1633 27.5377C19.5826 30.6599 21.224 37.8356 27.6952 44.3067C34.1663 50.7779 41.3401 52.4193 44.4642 52.8386C46.7271 53.3278 49.1806 52.7064 50.9391 50.9479C53.6893 48.1977 43.7276 38.236 40.9774 40.9862L39.2227 42.7409L29.261 32.7792L31.0138 31.0245C33.764 28.2743 23.8023 18.3126 21.0521 21.0627C19.2936 22.8212 18.6722 25.2748 19.1633 27.5377Z" fill="#8F5CDB"/>
<path d="M21.0581 21.0572L31.0179 31.017C33.7624 28.265 33.7624 23.8111 31.0123 21.061C28.2659 18.3146 23.8101 18.3127 21.0581 21.0572Z" fill="#8F5CDB"/>
<path d="M40.9812 40.9805L50.941 50.9403C53.6855 48.1902 53.6855 43.7344 50.9354 40.9843C48.1871 38.2379 43.7332 38.236 40.9812 40.9805Z" fill="#8F5CDB"/>
</svg>
