<svg width="70" height="70" viewBox="0 0 70 70" fill="none" xmlns="http://www.w3.org/2000/svg">
<rect width="70" height="70" fill="#F3EEFB"/>
<path opacity="0.35" d="M20.9314 48.1895V23.5696C20.9314 20.6557 23.2931 18.2939 26.2071 18.2939H43.7927C46.7067 18.2939 49.0684 20.6557 49.0684 23.5696V48.1895C49.0684 51.1035 46.7067 53.4652 43.7927 53.4652H26.2071C23.2931 53.4652 20.9314 51.1035 20.9314 48.1895Z" fill="#8F5CDB"/>
<path d="M33.2412 44.6722C32.791 44.6722 32.3409 44.4999 31.9979 44.1569L26.7222 38.8813C26.0346 38.1937 26.0346 37.0822 26.7222 36.3946C27.4098 35.707 28.5213 35.707 29.2088 36.3946L33.2412 40.427L40.7908 32.8775C41.4783 32.1899 42.5898 32.1899 43.2774 32.8775C43.965 33.5651 43.965 34.6765 43.2774 35.3641L34.4845 44.1569C34.1416 44.4999 33.6914 44.6722 33.2412 44.6722Z" fill="#8F5CDB"/>
<path d="M39.3962 21.8108H30.6034C29.1456 21.8108 27.9656 20.6291 27.9656 19.173C27.9656 17.7169 29.1456 16.5352 30.6034 16.5352H39.3962C40.8541 16.5352 42.0341 17.7169 42.0341 19.173C42.0341 20.6291 40.8541 21.8108 39.3962 21.8108Z" fill="#8F5CDB"/>
</svg>
