<svg width="54" height="41" viewBox="0 0 54 41" fill="none" xmlns="http://www.w3.org/2000/svg">
<path d="M28.9261 0V11.685C28.9261 15.0454 29.5753 18.5395 30.8736 22.1672C32.1338 25.7567 33.8712 29.1934 36.0861 32.4775C38.3009 35.7233 40.8212 38.5109 43.6469 40.8403L53.2699 34.5968C51.1696 31.4273 49.3367 28.0097 47.7711 24.3438C46.2054 20.6397 45.4226 16.4583 45.4226 11.7996V0H28.9261ZM-1.21472e-05 0V11.685C-1.21472e-05 15.0454 0.649153 18.5395 1.94749 22.1672C3.20763 25.7567 4.94511 29.1934 7.15992 32.4775C9.37473 35.7233 11.8759 38.5109 14.6635 40.8403L24.2865 34.5968C22.2244 31.4273 20.4106 28.0097 18.8449 24.3438C17.2793 20.6397 16.4965 16.4583 16.4965 11.7996V0H-1.21472e-05Z" fill="#8F5CDB"/>
</svg>
