<svg width="70" height="70" viewBox="0 0 70 70" fill="none" xmlns="http://www.w3.org/2000/svg">
<rect width="70" height="70" fill="#F3EEFB"/>
<path opacity="0.35" d="M49.6147 53.2068H20.1164C18.9988 53.2068 17.9269 52.7628 17.1366 51.9725C16.3463 51.1822 15.9023 50.1104 15.9023 48.9927V27.4273C15.9025 26.3003 16.204 25.1937 16.7757 24.2223C17.3473 23.251 18.1682 22.4501 19.1535 21.9027L31.7956 14.88C32.7347 14.3583 33.7913 14.0845 34.8656 14.0845C35.9398 14.0845 36.9964 14.3583 37.9355 14.88L50.5776 21.9027C51.5629 22.4501 52.3838 23.251 52.9555 24.2223C53.5271 25.1937 53.8286 26.3003 53.8288 27.4273V48.9927C53.8288 50.1104 53.3848 51.1822 52.5945 51.9725C51.8042 52.7628 50.7323 53.2068 49.6147 53.2068Z" fill="#8F5CDB"/>
<path d="M34.8655 34.2437C38.3565 34.2437 41.1866 31.4137 41.1866 27.9226C41.1866 24.4316 38.3565 21.6016 34.8655 21.6016C31.3745 21.6016 28.5444 24.4316 28.5444 27.9226C28.5444 31.4137 31.3745 34.2437 34.8655 34.2437Z" fill="#8F5CDB"/>
<path d="M41.1868 38.458H28.5446C27.427 38.458 26.3551 38.902 25.5648 39.6923C24.7745 40.4826 24.3306 41.5544 24.3306 42.6721C24.3306 43.7897 24.7745 44.8615 25.5648 45.6518C26.3551 46.4421 27.427 46.8861 28.5446 46.8861H41.1868C42.3044 46.8861 43.3762 46.4421 44.1665 45.6518C44.9568 44.8615 45.4008 43.7897 45.4008 42.6721C45.4008 41.5544 44.9568 40.4826 44.1665 39.6923C43.3762 38.902 42.3044 38.458 41.1868 38.458Z" fill="#8F5CDB"/>
</svg>
